<?xml version="1.0" encoding="UTF-8"?>
<svg xmlns="http://www.w3.org/2000/svg" version="1.1" viewBox="0 0 518.3 118">
  <defs>
    <style>
      .cls-1 {
        fill: #4d4726;
      }
    </style>
  </defs>
  <!-- Generator: Adobe Illustrator 28.7.1, SVG Export Plug-In . SVG Version: 1.2.0 Build 142)  -->
  <g>
    <g id="Layer_1">
      <g>
        <polygon class="cls-1" points="0 115.9 0 115.2 6.9 108.3 6.9 7.4 0 .7 0 0 58.8 0 59.7 11.1 21.6 5.9 21.6 52.8 50.2 51.2 50.2 60.9 21.6 59.3 21.6 110 59.7 104.7 58.8 115.9 0 115.9"/>
        <path class="cls-1" d="M131.3,107.8V0l-19.9,3.5v.7l6.9,6.4v35.3c-4.3-8.5-11.4-13.1-21.5-13.1-19,0-30.3,16.4-30.3,42.6s11.2,42.7,29.9,42.7,17.5-4.8,21.8-13.3v13.3l19.9-3.1v-.7l-6.9-6.4ZM118.3,90.3c-2.2,10.9-8.7,17.5-18.2,17.5s-20.2-12.6-20.2-32.5,7.1-32.5,20.2-32.5,15.9,6.6,18.2,17.5v30.1Z"/>
        <path class="cls-1" d="M207.4,71.6c0-22.3-10.6-38.9-30.6-38.9s-31.7,16.6-31.7,42.6,11.2,42.7,31.5,42.7,23.9-10.9,30.3-23.2l-4.8-3.1c-6.4,9.7-13.5,15.9-23,15.9s-20.1-11.2-20.6-31.7h49v-4.3ZM158.6,69.2c1-18.7,7.1-29.8,18.2-29.8s16.3,11.1,17.1,29.8h-35.3Z"/>
        <polygon class="cls-1" points="214.3 115.9 214.3 115.2 221.3 108.8 221.3 10.6 214.3 4.2 214.3 3.5 234.2 0 234.2 108.8 241.2 115.2 241.2 115.9 214.3 115.9"/>
        <path class="cls-1" d="M248.9,115.9v-.7l6.9-6.4V43.3l-6.9-6.4v-.7l19.9-3.5v12.5c4.3-8.1,11.4-12.5,20.6-12.5s18.5,5,22.1,16.4c4-10.6,11.8-16.4,22.3-16.4s23.9,9,23.9,30.4v45.7l6.9,6.4v.7h-26.8v-.7l6.9-6.4v-45.7c0-14.9-6.6-20.4-14.2-20.4s-15.7,6.6-17.3,17.3v48.8l6.9,6.4v.7h-26.8v-.7l6.9-6.4v-45.7c0-14.9-7.1-20.4-14.5-20.4s-15.4,6.6-17,17.3v48.8l6.9,6.4v.7h-26.8Z"/>
        <path class="cls-1" d="M429.7,107.8v-44.6c0-21.5-11.1-30.4-26.6-30.4s-29.1,10-29.1,19,1.9,6.4,6.2,6.4,7.3-2.1,9.5-8.5c2.4-6.9,6.4-10.4,12.8-10.4s14.2,4.8,14.2,22.1v6.7c-6.7.7-13.3,1.4-20.1,2.8-14.9,3.1-25.1,9-25.1,25.3s9.2,21.8,22.1,21.8,18.3-4.8,23-13.3v13.3l19.9-3.1v-.7l-6.9-6.4ZM416.7,91c-2.1,10.9-9.2,17.5-18.9,17.5s-13-3.8-13-12.6,4.7-14,12.5-16.6c6.6-2.2,12.6-3.6,19.4-4.8v16.6Z"/>
        <path class="cls-1" d="M443.6,115.9v-.7l6.9-6.4V43.3l-6.9-6.4v-.7l19.9-3.5v13c4.5-8.3,12.3-13,22.7-13s25.3,9,25.3,30.4v45.7l6.9,6.4v.7h-26.8v-.7l6.9-6.4v-45.7c0-14.9-7.3-20.2-16.4-20.2s-16.3,5.9-18.5,15.9v50l6.9,6.4v.7h-26.8Z"/>
      </g>
    </g>
  </g>
</svg>